<?xml version="1.0" encoding="utf-8"?>
<!-- Generator: Adobe Illustrator 16.0.0, SVG Export Plug-In . SVG Version: 6.00 Build 0)  -->
<!DOCTYPE svg PUBLIC "-//W3C//DTD SVG 1.1//EN" "http://www.w3.org/Graphics/SVG/1.1/DTD/svg11.dtd">
<svg version="1.1" id="Calque_1" xmlns="http://www.w3.org/2000/svg" xmlns:xlink="http://www.w3.org/1999/xlink" x="0px" y="0px"
	 width="512px" height="512px" viewBox="0 0 512 512" enable-background="new 0 0 512 512" xml:space="preserve">
<g>
	<path fill="#C16957" d="M457.73,170.37L341.63,54.27c-0.939-0.94-2.21-1.46-3.54-1.46H173.9c-1.32,0-2.59,0.52-3.53,1.46
		l-116.1,116.1c-0.94,0.94-1.46,2.21-1.46,3.53v164.19c0,1.33,0.52,2.601,1.46,3.54l116.1,116.101c0.94,0.939,2.21,1.46,3.53,1.46
		h164.19c1.33,0,2.601-0.521,3.54-1.46L457.73,341.63c0.939-0.939,1.47-2.21,1.47-3.54V173.9
		C459.2,172.58,458.67,171.31,457.73,170.37z M449.2,336.02L336.019,449.191H175.98L62.81,336.02V175.98L175.98,62.81h160.04
		L449.2,175.98V336.02z"/>
	<path fill="#FD9F81" d="M336.019,62.81H175.98L62.81,175.98v160.04l113.17,113.171h160.04L449.2,336.02V175.98L336.019,62.81z
		 M256,404.821c-14.52,0-26.34-11.82-26.34-26.34c0-14.521,11.82-26.341,26.34-26.341c14.52,0,26.34,11.82,26.34,26.341
		C282.34,393,270.519,404.821,256,404.821z M282.34,312.76c0,14.521-11.82,26.34-26.34,26.34c-14.52,0-26.34-11.819-26.34-26.34
		V133.52c0-14.53,11.82-26.34,26.34-26.34c14.52,0,26.34,11.81,26.34,26.34V312.76z"/>
	<path fill="#C16957" d="M256,107.18c-14.52,0-26.34,11.81-26.34,26.34v179.24c0,14.521,11.82,26.34,26.34,26.34
		c14.52,0,26.34-11.819,26.34-26.34V133.52C282.34,118.99,270.519,107.18,256,107.18z M272.34,312.76c0,9.01-7.33,16.34-16.34,16.34
		s-16.34-7.33-16.34-16.34V133.52c0-9.01,7.33-16.34,16.34-16.34s16.34,7.33,16.34,16.34V312.76z"/>
	<path fill="#FFFFFF" d="M272.34,133.52v179.24c0,9.01-7.33,16.34-16.34,16.34s-16.34-7.33-16.34-16.34V133.52
		c0-9.01,7.33-16.34,16.34-16.34S272.34,124.51,272.34,133.52z"/>
	<path fill="#C16957" d="M256,352.14c-14.52,0-26.34,11.82-26.34,26.341c0,14.52,11.82,26.34,26.34,26.34
		c14.52,0,26.34-11.82,26.34-26.34C282.34,363.96,270.519,352.14,256,352.14z M256,394.821c-9.01,0-16.34-7.33-16.34-16.34
		c0-9.011,7.33-16.341,16.34-16.341s16.34,7.33,16.34,16.341C272.34,387.49,265.01,394.821,256,394.821z"/>
	<path fill="#FFFFFF" d="M272.34,378.481c0,9.01-7.33,16.34-16.34,16.34s-16.34-7.33-16.34-16.34c0-9.011,7.33-16.341,16.34-16.341
		S272.34,369.47,272.34,378.481z"/>
</g>
</svg>
