<?xml version="1.0" encoding="UTF-8"?><svg id="Layer_1" xmlns="http://www.w3.org/2000/svg" xmlns:xlink="http://www.w3.org/1999/xlink" viewBox="0 0 48 48"><defs><style>.cls-1{fill:url(#linear-gradient);}.cls-2{fill:url(#linear-gradient-3);}.cls-3{fill:url(#linear-gradient-4);}.cls-4{fill:url(#linear-gradient-2);}.cls-5{fill:url(#linear-gradient-5);}</style><linearGradient id="linear-gradient" x1="15.307" y1="4.908" x2="29.449" y2="33.355" gradientTransform="matrix(1, 0, 0, 1, 0, 0)" gradientUnits="userSpaceOnUse"><stop offset="0" stop-color="#3e4154"/><stop offset="1" stop-color="#1b2129"/></linearGradient><linearGradient id="linear-gradient-2" x1="6.778" y1="34.985" x2="45.028" y2="47.199" gradientTransform="matrix(1, 0, 0, 1, 0, 0)" gradientUnits="userSpaceOnUse"><stop offset="0" stop-color="#34ca82"/><stop offset="1" stop-color="#37a477"/></linearGradient><linearGradient id="linear-gradient-3" x1="24" y1="32.429" x2="24" y2="37.475" gradientTransform="matrix(1, 0, 0, 1, 0, 0)" gradientUnits="userSpaceOnUse"><stop offset="0" stop-color="#f1d2bd"/><stop offset="1" stop-color="#feb592"/></linearGradient><linearGradient id="linear-gradient-4" x1="19.739" y1="38.148" x2="28.364" y2="41.577" gradientTransform="matrix(1, 0, 0, 1, 0, 0)" gradientUnits="userSpaceOnUse"><stop offset="0" stop-color="#37aa79"/><stop offset="1" stop-color="#398a70"/></linearGradient><linearGradient id="linear-gradient-5" x1="24" y1="14.429" x2="24" y2="32.643" xlink:href="#linear-gradient-3"/></defs><path class="cls-1" d="M38.781,29.375c-1.523-1.904-2.434-4.181-2.636-6.59l.563-5.074,.176-.742c.224-.947,.337-1.933,.337-2.93,0-2.361-.644-4.686-1.862-6.724-2.335-3.896-6.607-6.316-11.148-6.316h-.42c-2.241,0-4.455,.584-6.4,1.688-1.955,1.098-3.597,2.699-4.748,4.627-1.746,2.914-2.288,6.34-1.525,9.655l.176,.74,.563,5.074c-.203,2.409-1.113,4.686-2.636,6.59-.217,.271-.278,.634-.161,.96,.117,.327,.394,.569,.733,.642l7.266,1.552c.13,.032,3.537,.049,6.943,.049,3.261,0,6.522-.015,6.908-.045v.004l7.301-1.56c.339-.073,.616-.315,.733-.642,.117-.326,.056-.69-.161-.96Z"/><path class="cls-4" d="M43.923,41.947l-.771-2.055c-.87-2.319-2.68-4.195-4.965-5.147l-8.803-3.668c-.122-.051-.253-.077-.385-.077h-10c-.132,0-.263,.026-.385,.077l-8.802,3.667c-2.286,.952-4.096,2.829-4.966,5.147l-.771,2.055c-.345,.921-.217,1.954,.344,2.762,.56,.808,1.482,1.291,2.466,1.291H41.114c.984,0,1.906-.483,2.466-1.291,.561-.809,.689-1.841,.344-2.762Z"/><path class="cls-2" d="M29,28v4.46c0,4.243-1.686,8.313-4.686,11.314l-.314,.314h0l-.314-.314c-3.001-3.001-4.686-7.07-4.686-11.314v-4.46h10Z"/><path class="cls-3" d="M24,38c-.955,0-2.487-.106-4.247-.714,.767,2.424,2.102,4.656,3.933,6.488l.314,.314,.314-.314c1.832-1.832,3.166-4.065,3.934-6.49-1.032,.357-2.484,.716-4.247,.716Z"/><path class="cls-5" d="M34.385,16.783h0c-2.029-.676-3.803-1.955-5.086-3.666l-1.145-1.527h0c-2.029,2.029-4.628,3.39-7.45,3.904l-7.088,1.289c-1.724,0-3.115,1.392-3.115,3.115s1.392,3.115,3.115,3.115c.228,0,.457-.031,.675-.083l.644,2.918c.488,2.17,1.817,4.06,3.707,5.244l3.157,1.963c1.35,.852,3.053,.852,4.403,0l3.157-1.963c1.89-1.184,3.219-3.074,3.707-5.244l.644-2.918c.218,.052,.447,.083,.675,.083,1.724,0,3.115-1.392,3.115-3.115s-1.392-3.115-3.115-3.115Z"/></svg>