<?xml version="1.0" encoding="UTF-8"?><svg id="Layer_1" xmlns="http://www.w3.org/2000/svg" xmlns:xlink="http://www.w3.org/1999/xlink" viewBox="0 0 48 48"><defs><style>.cls-1{fill:url(#linear-gradient);}.cls-2{fill:url(#linear-gradient-3);}.cls-3{fill:url(#linear-gradient-4);}.cls-4{fill:url(#linear-gradient-2);}.cls-5{fill:url(#linear-gradient-5);}</style><linearGradient id="linear-gradient" x1="24" y1="1.839" x2="24" y2="16.968" gradientTransform="matrix(1, 0, 0, 1, 0, 0)" gradientUnits="userSpaceOnUse"><stop offset="0" stop-color="#3e4154"/><stop offset="1" stop-color="#1b2129"/></linearGradient><linearGradient id="linear-gradient-2" x1="6.531" y1="33.904" x2="42.371" y2="47.725" gradientTransform="matrix(1, 0, 0, 1, 0, 0)" gradientUnits="userSpaceOnUse"><stop offset="0" stop-color="#34ca82"/><stop offset="1" stop-color="#37a477"/></linearGradient><linearGradient id="linear-gradient-3" x1="17.457" y1="32.628" x2="32.243" y2="39.271" gradientTransform="matrix(1, 0, 0, 1, 0, 0)" gradientUnits="userSpaceOnUse"><stop offset="0" stop-color="#37aa79"/><stop offset="1" stop-color="#398a70"/></linearGradient><linearGradient id="linear-gradient-4" x1="24" y1="33.661" x2="24" y2="40.091" gradientTransform="matrix(1, 0, 0, 1, 0, 0)" gradientUnits="userSpaceOnUse"><stop offset="0" stop-color="#f1d2bd"/><stop offset="1" stop-color="#feb592"/></linearGradient><linearGradient id="linear-gradient-5" x1="18.161" y1="12.729" x2="31.661" y2="29.925" xlink:href="#linear-gradient-4"/></defs><path class="cls-1" d="M36.859,9.126l-.36-.841c-1.065-2.476-3.425-4.118-6.085-4.272-1.596-1.456-3.648-2.252-5.823-2.252-.673,0-1.309,.07-1.946,.216l-4.907,1.139c-2.781,.637-5.119,2.588-6.255,5.22l-.34,.791c-.769,1.794-.933,3.828-.461,5.727l.72,2.87c.032,.128,.089,.25,.168,.355l2.63,3.52c.189,.252,.486,.401,.801,.401h19c.39,0,.744-.226,.907-.58l1.63-3.52c.026-.057,.047-.116,.062-.177l.721-2.872c.471-1.897,.307-3.931-.462-5.725Z"/><path class="cls-4" d="M44.435,42.349l-.45-2.023c-.7-3.152-3.052-5.7-6.139-6.65l-8.553-2.631c-.095-.029-.194-.044-.294-.044h-10c-.1,0-.199,.015-.294,.044l-8.553,2.631c-3.086,.95-5.438,3.498-6.138,6.65l-.45,2.023c-.199,.893,.016,1.814,.588,2.528,.573,.714,1.426,1.123,2.34,1.123H41.507c.915,0,1.768-.409,2.34-1.123,.572-.714,.787-1.635,.588-2.528Z"/><path class="cls-2" d="M29,31h0l1.899,2.532c.727,.969,1.252,2.073,1.546,3.248h0c.294,1.175-.516,2.339-1.719,2.473l-6.726,.747-6.726-.747c-1.204-.134-2.013-1.298-1.719-2.473h0c.294-1.175,.819-2.279,1.546-3.248l1.899-2.532h10Z"/><path class="cls-3" d="M19,31h0c0,2.585,.906,5.087,2.561,7.073l.903,1.083c.8,.96,2.273,.96,3.073,0l.903-1.083c1.655-1.986,2.561-4.488,2.561-7.073h0v-5h-10v5Z"/><path class="cls-5" d="M33.531,17.636l-1.224,1.224-.519-2.077-.166-.685c-.239-.924-.623-1.797-1.153-2.586l-1.277-1.921c-2.046,1.36-4.393,2.222-6.833,2.492l-2.762,.301c-1.464,.166-2.71,1.09-3.313,2.399-.104,.228-.187,.478-.249,.727l-.343,1.35-1.224-1.224c-.669-.669-1.73-.869-2.531-.364l-.015,.009c-.862,.55-1.423,1.516-1.423,2.617,0,1.724,1.392,3.115,3.115,3.115,.228,0,.457-.031,.675-.083l.644,2.918c.488,2.17,1.817,4.06,3.707,5.244l3.157,1.963c1.35,.852,3.053,.852,4.403,0l3.157-1.963c1.89-1.184,3.219-3.074,3.707-5.244l.644-2.918c.218,.052,.447,.083,.675,.083,1.724,0,3.115-1.392,3.115-3.115,0-1.101-.561-2.067-1.423-2.617l-.015-.009c-.801-.505-1.862-.305-2.531,.364Z"/></svg>